# xmcd
#
# Track frame offsets:
#	260
#	13671
#	31465
#	50122
#	70246
#	88370
#	105479
#	121124
#	133424
#	158039
#	174666
#	191621
#	202172
#
# Disc length: 2889 seconds
#
# Revision: 1
# Processed by: cddbd v1.5.2PL0 Copyright (c) Steve Scherf et al.
# Submitted via: audiograbber 1.83.01
#
DISCID=c00b460d
DTITLE=Les Marins d'Iroise - La mer est immense
DYEAR=2015
DGENRE=Shanties
TTITLE0=Fanny danse
TTITLE1=La mer est immense
TTITLE2=Le corsaire de Saint-Malo
TTITLE3=Vire au cabestan
TTITLE4=Aux vents solitaires
TTITLE5=Guerre, guerre, vente, vent
TTITLE6=L'ancre noire
TTITLE7=La forêt sur la rade
TTITLE8=Rolling down to old Maui
TTITLE9=Mazurka mon joli navire
TTITLE10=Reagan Dougan
TTITLE11=J'rentre chez moi
TTITLE12=Les filles du bord de mer
EXTD=
EXTT0=
EXTT1=
EXTT2=
EXTT3=
EXTT4=
EXTT5=
EXTT6=
EXTT7=
EXTT8=
EXTT9=
EXTT10=
EXTT11=
EXTT12=
PLAYORDER=
